<svg width="287" height="279" viewBox="0 0 287 279" fill="none" xmlns="http://www.w3.org/2000/svg">
<g clip-path="url(#clip0_2376_13724)">
<path d="M26.59 174.18H135.85C135.85 231.55 89.3 278.09 31.94 278.09H26.6V174.18H26.59Z" fill="url(#paint0_linear_2376_13724)"/>
<path d="M261.26 174.18H152C152 231.55 198.55 278.09 255.91 278.09H261.25V174.18H261.26Z" fill="url(#paint1_linear_2376_13724)"/>
<path d="M286.76 65.3498V166.95H152.24C173.78 123.21 257.54 119.45 258.39 119.41L266.14 119.08V65.3398H286.76V65.3498Z" fill="url(#paint2_linear_2376_13724)"/>
<path d="M134.52 166.95H0V65.3496H20.58V119.12L28.33 119.42C29.22 119.42 113.01 123.21 134.52 166.96V166.95Z" fill="url(#paint3_linear_2376_13724)"/>
<path d="M139.31 49.4203V158.94C112.29 114.51 28.64 111.31 28.64 111.31V0.0302734C96.42 0.0302734 128.75 34.8703 139.31 49.4203Z" fill="url(#paint4_linear_2376_13724)"/>
<path d="M258.09 0.03V111.3C258.09 111.3 174.43 114.47 147.42 158.93V49.38C157.94 34.87 190.34 0 258.09 0V0.03Z" fill="url(#paint5_linear_2376_13724)"/>
</g>
<defs>
<linearGradient id="paint0_linear_2376_13724" x1="81.21" y1="-248.73" x2="81.21" y2="123.74" gradientUnits="userSpaceOnUse">
<stop stop-color="white"/>
<stop offset="0.25" stop-color="#FBF597"/>
<stop offset="1" stop-color="#F97921"/>
</linearGradient>
<linearGradient id="paint1_linear_2376_13724" x1="206.64" y1="-248.73" x2="206.64" y2="123.74" gradientUnits="userSpaceOnUse">
<stop stop-color="white"/>
<stop offset="0.25" stop-color="#FBF597"/>
<stop offset="1" stop-color="#F97921"/>
</linearGradient>
<linearGradient id="paint2_linear_2376_13724" x1="219.5" y1="-248.73" x2="219.5" y2="123.73" gradientUnits="userSpaceOnUse">
<stop stop-color="white"/>
<stop offset="0.25" stop-color="#FBF597"/>
<stop offset="1" stop-color="#F97921"/>
</linearGradient>
<linearGradient id="paint3_linear_2376_13724" x1="67.26" y1="-248.73" x2="67.26" y2="123.73" gradientUnits="userSpaceOnUse">
<stop stop-color="white"/>
<stop offset="0.25" stop-color="#FBF597"/>
<stop offset="1" stop-color="#F97921"/>
</linearGradient>
<linearGradient id="paint4_linear_2376_13724" x1="83.97" y1="-248.73" x2="83.97" y2="123.74" gradientUnits="userSpaceOnUse">
<stop stop-color="white"/>
<stop offset="0.25" stop-color="#FBF597"/>
<stop offset="1" stop-color="#F97921"/>
</linearGradient>
<linearGradient id="paint5_linear_2376_13724" x1="202.76" y1="-248.73" x2="202.76" y2="123.74" gradientUnits="userSpaceOnUse">
<stop stop-color="white"/>
<stop offset="0.25" stop-color="#FBF597"/>
<stop offset="1" stop-color="#F97921"/>
</linearGradient>
<clipPath id="clip0_2376_13724">
<rect width="286.76" height="278.09" fill="white"/>
</clipPath>
</defs>
</svg>
